<svg xmlns="http://www.w3.org/2000/svg" viewBox="0 0 394.77 123.73"><defs><style>.cls-1{fill:#f6866f;}.cls-2{fill:#f27661;}.cls-3{fill:#ed6554;}.cls-4{fill:#f2b6ad;}</style></defs><title>bacon</title><g id="Layer_2" data-name="Layer 2"><g id="burger_ingredient_illustration_set" data-name="burger ingredient illustration set"><path class="cls-1" d="M152.06,7.31c-3.87-2.51-21.48-5.67-27.23-4s-16.41,18.38-25.32,21S74.32,17.68,62,21.83,40.35,38.63,34.12,40.46-.5,39.71,0,52.07c0,0,9.68,43.53,12.84,43.65S26.48,81.8,33.28,81.89s10,7.47,24.55,3.71S75.6,66.3,83.7,65.48s16.06,6.76,32.65,2.91,12-17.62,21.41-19.34,18.91,7.59,25.61,5.55S155.92,9.82,152.06,7.31Z"/><path class="cls-2" d="M163.59,54.91c1.56-.48,2-3.17,1.68-7-8.24-5.11-19.91-11.26-28.13-11-14,.36-14,22.65-21.5,23.51s-21-9.36-32.85-7.13S72.14,71,65.14,73s-21-5.5-35.5-5.07c-9,.28-17.31,7.81-22.25,13.44,2.24,8,4.46,14.65,5.68,14.7,3.16.11,13.63-13.92,20.43-13.84s10,7.48,24.55,3.72,17.77-19.3,25.87-20.12S100,72.55,116.57,68.7s12-17.62,21.41-19.35S156.89,56.94,163.59,54.91Z"/><path class="cls-2" d="M53.27,61.67s.08-1.83-3.4-1.76-3.6,1.91-3.6,1.91-.78,2.52,4.06,2.42S53.27,61.67,53.27,61.67Z"/><path class="cls-2" d="M52.38,66.69s-.78,2.52,4,2.41,3-2.56,3-2.56.08-1.84-3.4-1.76S52.38,66.69,52.38,66.69Z"/><path class="cls-2" d="M56,61.61S55.19,64.13,60,64,63,61.46,63,61.46s.07-1.83-3.4-1.76S56,61.61,56,61.61Z"/><path class="cls-3" d="M128.08,60.81s-1.82,2.84-11.51,7.89-25.13-4.13-34-3S70.19,83.57,56,86.89s-14.35-4.07-22.54-4.7S13.69,97.07,13.69,97.07c3.25,2.5,10.5-9.25,14.5-11.9s9.25.15,11.5,1.72,5.5,3.43,16.23,2.18,19-17.25,25-20,11.5-.79,16,1.21,16.5,3.25,25-2.72S128.08,60.81,128.08,60.81Z"/><path class="cls-4" d="M122,12.82c-7,.25-25,22.25-31.54,24s-19.5-9.24-30.82-7.49c-5.92.92-9.6,6.16-12.83,11.19-2.35-.79-6.09-1.65-6.43.73-.26,1.8,1.74,3.11,3.85,3.26-2,2.91-4,5.24-6.46,5.82-7.45,1.75-7.56-3.25-16.31-2.5s-11,13-11,13c4.25,4,7-5.24,8.29-5.74.85-.33,3,2.06,8.22,2.64.45,3,6,5,8.91,2.2,1.21-1.16.89-2.1-.11-2.85.64-.14,1.3-.29,2-.49C51.3,52.82,52.69,38.32,59.62,36.8s13.32,9.52,30.32,6,15.37-17.89,33.25-20.25,23.25,0,23.25-4S128.94,12.57,122,12.82Z"/><path class="cls-4" d="M136.38,30.59c-3.92-2-6,14.1-9.94,15.5-1.58.57-4.12-.38-7.27-1.59,2.4-1.79,4-4.37,2.81-6.09-1.87-2.63-6.47,1.21-9.19,3.89a22.45,22.45,0,0,0-10.35-.71c-10.25,2-12.25,14.25-17,15.23-2.88.6-7.15-1.82-11.62-3.54-.13-2.5-.65-7.24-2.77-6.37-1.52.62-2.38,3-1.93,5a11.55,11.55,0,0,0-3.93-.06c-7,1.25-6.75,16.25-14.75,18s-16.75-3.25-16.75-3.25c-4.5,5.75,11.12,11.75,18.75,8.29s9-14.54,14.18-17.79,8.32,6,19.11,2.71,11.71-9.21,18-11.62,19,7.15,25.29,4.41S140.3,32.57,136.38,30.59Z"/><path class="cls-1" d="M259.58.51c4.39-1.4,22.21.2,27.31,3.35s11,22.06,18.88,26.94,26.05.23,36.85,7.48,16.44,21.91,22,25.33S398.18,72,394.43,83.8c0,0-20.83,39.44-23.91,38.71s-9.47-17-16-18.73-11.64,4.57-24.66-2.89-12.05-23.31-19.65-26.24-17.28,2.29-32.26-5.8S271,48.68,262.35,44.54s-20.24,2.33-26.16-1.4S255.19,1.91,259.58.51Z"/><path class="cls-2" d="M235.89,43.38c-1.38-.87-1.08-3.58.24-7.24,9.29-2.76,22.17-5.61,30.05-3.24,13.41,4,7.53,25.54,14.54,28.35s22.72-3.49,33.56,1.79S319.87,83,326.09,86.76s21.71.24,35.58,4.49c8.65,2.65,14.64,12.1,17.92,18.83-4.29,7.17-8.17,13-9.36,12.67-3.08-.72-9.47-17-16.06-18.73s-11.63,4.57-24.66-2.89S317.46,77.82,309.87,74.9s-17.28,2.28-32.26-5.81-6.94-20.17-15.55-24.31S241.82,47.11,235.89,43.38Z"/><path class="cls-2" d="M340.52,79s.41-1.79,3.74-.8,3,2.79,3,2.79.09,2.64-4.55,1.26S340.52,79,340.52,79Z"/><path class="cls-2" d="M340.05,84.09s.09,2.63-4.54,1.26-2.17-3.26-2.17-3.26.41-1.79,3.74-.8S340.05,84.09,340.05,84.09Z"/><path class="cls-2" d="M337.93,78.24s.09,2.64-4.54,1.26-2.17-3.25-2.17-3.25.41-1.79,3.74-.8S337.93,78.24,337.93,78.24Z"/><path class="cls-3" d="M268.59,58.44s1,3.23,9,10.65,25.32,2.65,33.58,6.08,7.23,20.5,20,27.44,14.9-.14,23,1.41,15.18,19.58,15.18,19.58c-3.79,1.55-7.68-11.69-10.84-15.3s-9-2.3-11.55-1.38-6.21,1.86-16.23-2.18-13.79-21.66-18.87-25.86-10.88-3.79-15.75-3-16.77-1.22-23.43-9.22S268.59,58.44,268.59,58.44Z"/><path class="cls-4" d="M287.14,13.77c6.65,2.08,18.27,28.06,24.08,31.45s21.25-3.76,31.7.91c5.48,2.45,7.65,8.47,9.43,14.18,2.48-.14,6.31,0,6,2.4-.22,1.8-2.49,2.54-4.57,2.13,1.15,3.33,2.46,6.1,4.7,7.32,6.72,3.65,8.14-1.14,16.38,1.89s7.19,15.43,7.19,15.43c-5.15,2.72-5.37-6.9-6.48-7.72-.73-.54-3.42,1.2-8.63.38-1.23,2.79-7.08,3.24-9.17-.24-.87-1.43-.31-2.26.86-2.71-.59-.31-1.18-.63-1.8-1C344.75,71,347.24,56.64,341,53.35s-15.36,5.67-30.83-2.2S300,29.84,283.39,22.85,261,16.71,262,12.86,280.48,11.69,287.14,13.77Z"/><path class="cls-4" d="M268.55,27.1c4.3-.87,2.09,15.19,5.5,17.58,1.37,1,4.08.71,7.43.38-1.84-2.36-2.73-5.27-1.09-6.62,2.49-2,5.91,2.88,7.83,6.18a22.5,22.5,0,0,1,10.17,2.05c9.36,4.63,8.05,17,12.38,19.17,2.62,1.34,7.38.13,12.14-.34.79-2.38,2.54-6.82,4.36-5.42,1.3,1,1.5,3.53.54,5.33a11.38,11.38,0,0,1,3.8,1c6.42,3.06,2.22,17.46,9.48,21.26s17,1.28,17,1.28c2.83,6.74-13.82,8.41-20.27,3s-4.84-16.39-9-20.89-9.61,3.59-19.15-2.43-8.87-12-14.26-16-20.16,1.91-25.55-2.41S264.25,28,268.55,27.1Z"/></g></g></svg>