<svg xmlns="http://www.w3.org/2000/svg" viewBox="0 0 388.51 122.08"><defs><style>.cls-1{fill:#f9ab6d;}.cls-2{fill:#f49c60;}.cls-3{fill:#ef9152;}.cls-4{fill:#ffe89b;}.cls-5{fill:#f9dd8c;}.cls-6{fill:#f4d27a;}</style></defs><title>bottom-bread</title><g id="Layer_2" data-name="Layer 2"><g id="burger_ingredient_illustration_set" data-name="burger ingredient illustration set"><path class="cls-1" d="M387,38.27H1.52s-31.5,81,192.74,81S387,38.27,387,38.27Z"/><path class="cls-2" d="M194.26,119.27c24.88,0,46.61-1,65.58-2.77-6.52-10.84-46.15-2.87-122-11-65-7-91.59-47.14-100.94-67.26H1.52S-30,119.27,194.26,119.27Z"/><path class="cls-3" d="M364.64,87.12c-19.73,12.6-61.76,29.41-179.77,32.1s-164.93-35-164.93-35-17.56,2.31,30.94,18.9,84,19.41,134,18.91,97,0,141-14S364.64,87.12,364.64,87.12Z"/><path class="cls-2" d="M142.83,96.51s.08-1.83-3.39-1.76-3.61,1.91-3.61,1.91-.77,2.52,4.06,2.42S142.83,96.51,142.83,96.51Z"/><path class="cls-2" d="M141.94,101.53s-.78,2.52,4.05,2.41,2.95-2.56,2.95-2.56.08-1.84-3.4-1.76S141.94,101.53,141.94,101.53Z"/><path class="cls-2" d="M145.53,96.45s-.78,2.52,4.05,2.42,2.95-2.57,2.95-2.57.08-1.83-3.4-1.76S145.53,96.45,145.53,96.45Z"/><path class="cls-2" d="M371.07,76.17s1,1.54,3.78-.54S376.67,72,376.67,72s-.84-2.5-4.7.4S371.07,76.17,371.07,76.17Z"/><path class="cls-2" d="M368.87,71.57s-.84-2.5-4.7.41-.9,3.8-.9,3.8,1,1.53,3.78-.55S368.87,71.57,368.87,71.57Z"/><path class="cls-2" d="M368.91,77.79s-.83-2.5-4.7.4-.9,3.8-.9,3.8,1,1.54,3.79-.54S368.91,77.79,368.91,77.79Z"/><path class="cls-4" d="M194.26,0C1.21,0,1.52,38.27,1.52,38.27S17.3,66,194.26,66,387,38.27,387,38.27,387.3,0,194.26,0Z"/><path class="cls-5" d="M194.26,55.42C54.7,55.42,15.39,38.18,5,30.89.74,35.24.76,38.27.76,38.27S16.55,66,193.5,66,386.24,38.27,386.24,38.27s0-2.74-3.65-6.76C370.9,39.11,330,55.42,194.26,55.42Z"/><path class="cls-6" d="M307.45,60.69S259.88,66,184.38,66s-114.5-8.47-114.5-8.47c0,15.5,155.5,8.47,200,8.47S307.45,60.69,307.45,60.69Z"/></g></g></svg>