<svg xmlns="http://www.w3.org/2000/svg" viewBox="0 0 421.76 108.18"><defs><style>.cls-1{fill:#ffe87d;}.cls-2{fill:#f9df6e;}.cls-3{fill:#f4d760;}</style></defs><title>cheese</title><g id="Layer_2" data-name="Layer 2"><g id="burger_ingredient_illustration_set" data-name="burger ingredient illustration set"><path class="cls-1" d="M380.68,21.15S371.51,0,210.76,0C40.68,0,32,21.15,32,21.15S-.66,50.49,0,59.82s64.67-7.33,132,5.33,84.67,44,98,43,80.29-44.75,111.33-47,76.67,10.36,80,3.52S380.68,21.15,380.68,21.15Z"/><path class="cls-2" d="M380.46,21.33l-.22-.18S371.08,0,210.33,0C75.53,0,42.12,13.29,34.06,18.8,53.84,31,104.61,51.69,220.89,51.69,312.73,51.69,358.2,35.57,380.46,21.33Z"/><path class="cls-2" d="M222.46,90.67s1.06-1.5-1.89-3.33S216.5,87,216.5,87s-2,1.69,2.09,4.23S222.46,90.67,222.46,90.67Z"/><path class="cls-2" d="M219,94.4s-2,1.68,2.09,4.23,3.86-.55,3.86-.55,1.07-1.5-1.89-3.33S219,94.4,219,94.4Z"/><path class="cls-2" d="M224.75,92.09s-2,1.68,2.09,4.23,3.87-.55,3.87-.55,1.06-1.5-1.89-3.33S224.75,92.09,224.75,92.09Z"/><path class="cls-2" d="M24.56,45.25s.87,1.62,3.82-.22,2.13-3.48,2.13-3.48-.62-2.56-4.72,0S24.56,45.25,24.56,45.25Z"/><path class="cls-2" d="M22.77,40.48s-.61-2.57-4.72,0-1.22,3.7-1.22,3.7.86,1.62,3.82-.21S22.77,40.48,22.77,40.48Z"/><path class="cls-2" d="M22.27,46.67s-.61-2.56-4.71,0-1.23,3.71-1.23,3.71.87,1.62,3.82-.22S22.27,46.67,22.27,46.67Z"/><path class="cls-2" d="M381.64,30.37s1.07-1.49-1.89-3.32-4.06-.36-4.06-.36-2,1.69,2.09,4.23S381.64,30.37,381.64,30.37Z"/><path class="cls-2" d="M378.16,34.1s-2,1.69,2.09,4.23,3.87-.55,3.87-.55,1.06-1.49-1.89-3.32S378.16,34.1,378.16,34.1Z"/><path class="cls-2" d="M383.94,31.79s-2,1.69,2.09,4.23,3.86-.55,3.86-.55S391,34,388,32.15,383.94,31.79,383.94,31.79Z"/><path class="cls-3" d="M123.68,62.19C85,55.86,48.34,58.86,48.34,58.86c-.33,7.67,31.67-6.33,76,5s76.34,30.7,76,28.39S162.34,68.53,123.68,62.19Z"/><path class="cls-3" d="M371.34,15.19c-3,2.34,7.34,8.34,17,16s32.34,22,30.34,31.3-36.34-.67-46-2.34-7.1,1.45-7.1,1.45c35.91,3.79,50,13.53,55.76,3S371.34,15.19,371.34,15.19Z"/></g></g></svg>