<svg xmlns="http://www.w3.org/2000/svg" viewBox="0 0 349.79 169.96"><defs><style>.cls-1{fill:#ffeec7;}.cls-2{fill:#fce4b6;}.cls-3{fill:#f7d9a9;}.cls-4{fill:#ffc149;}.cls-5{fill:#f9b53d;}.cls-6{fill:#f4a82f;}</style></defs><title>egg</title><g id="Layer_2" data-name="Layer 2"><g id="burger_ingredient_illustration_set" data-name="burger ingredient illustration set"><path class="cls-1" d="M322.34,53.09c-40.47-30.18-165.14-75.51-280.8,0,0,0-63.31,47.94-27.09,91.32s150.57.76,161.88,3.8,91.22,34.63,134.6,15.79S361.47,82.27,322.34,53.09Z"/><path class="cls-2" d="M281.31,158.8c-25.56,4.55-77.11-27.22-87.56-35.89s-88.81,38.56-120.88,30.68-23.34-64-24.31-80c-.48-7.75-6-13-11.56-16.34-14.19,12.55-52,51.41-22.11,87.17,36.22,43.37,150.56.76,161.88,3.8S268,182.84,311.36,164c22.7-9.85,35.47-31.77,36.9-54.61C331.41,110.36,302.38,155,281.31,158.8Z"/><path class="cls-2" d="M57,130.22s-1.8.39-.84,3.73,2.77,3,2.77,3,2.63.11,1.3-4.54S57,130.22,57,130.22Z"/><path class="cls-2" d="M62.08,129.8s2.63.11,1.3-4.53-3.24-2.2-3.24-2.2-1.79.39-.83,3.73S62.08,129.8,62.08,129.8Z"/><path class="cls-2" d="M56.25,127.63s2.63.11,1.3-4.54-3.23-2.19-3.23-2.19-1.8.39-.84,3.73S56.25,127.63,56.25,127.63Z"/><path class="cls-2" d="M171,119.51s1.2,1.38,3.67-1.07,1.29-3.87,1.29-3.87-1.18-2.36-4.6,1.05S171,119.51,171,119.51Z"/><path class="cls-2" d="M168.2,115.26s-1.18-2.36-4.6,1-.36,3.89-.36,3.89,1.2,1.38,3.67-1.07S168.2,115.26,168.2,115.26Z"/><path class="cls-2" d="M169.1,121.41s-1.17-2.36-4.59,1-.37,3.89-.37,3.89,1.21,1.38,3.67-1.07S169.1,121.41,169.1,121.41Z"/><path class="cls-2" d="M335.57,100.83s-1.8.4-.83,3.74,2.76,3,2.76,3,2.64.11,1.3-4.53S335.57,100.83,335.57,100.83Z"/><path class="cls-2" d="M340.65,100.41s2.63.11,1.3-4.53-3.23-2.19-3.23-2.19-1.8.39-.84,3.73S340.65,100.41,340.65,100.41Z"/><path class="cls-2" d="M334.82,98.24s2.64.11,1.3-4.53-3.23-2.2-3.23-2.2-1.79.39-.83,3.74S334.82,98.24,334.82,98.24Z"/><path class="cls-3" d="M125.9,157.75c-82,19.17-122-4-123.09-43.29S61.39,37.91,61.39,37.91C47.91,35.58-.8,82.58,0,114.46S28.87,170.24,80.2,166,125.9,157.75,125.9,157.75Z"/><path class="cls-3" d="M328.53,56.58c-19-19.34-63.93-38-68-32.69,0,0,65.85,21,77.91,46.86s13.6,56.53-7.34,78.85c0,0,9.51.84,16.12-25.93S347.53,75.91,328.53,56.58Z"/><path class="cls-2" d="M236.43,40.68,122.17,42.56c-5.66,4.4-3.22,18.1,60.11,18.1S236.43,40.68,236.43,40.68Z"/><path class="cls-4" d="M179,.91c-62.86,0-57.34,38.69-57.34,38.69s-3.55,17,56.12,17,58-17,58-17S241.88.91,179,.91Z"/><path class="cls-5" d="M235.77,39.6a29.34,29.34,0,0,0-2.36-14.81c-7.59,8.84-25.4,23.45-60.31,23.45C140,48.24,127,39,121.9,32.79a25.75,25.75,0,0,0-.23,6.81s-3.55,17,56.12,17S235.77,39.6,235.77,39.6Z"/><path class="cls-5" d="M133.78,28.82s1.58-.95-.41-3.8-3.58-1.95-3.58-1.95-2.53.74.23,4.71S133.78,28.82,133.78,28.82Z"/><path class="cls-5" d="M129.11,30.85s-2.53.74.23,4.71,3.76,1,3.76,1,1.57-1-.41-3.8S129.11,30.85,129.11,30.85Z"/><path class="cls-5" d="M135.32,31s-2.53.75.23,4.71,3.77,1,3.77,1,1.57-.94-.41-3.8S135.32,31,135.32,31Z"/><path class="cls-6" d="M236.7,32.91c-1-10.5-8.5-23.67-28-29.17s-49-4.07-50-1.2c0,0,33.21-4.55,53,3.33s27.37,24.43,22.51,37.82C234.23,43.69,237.7,43.41,236.7,32.91Z"/></g></g></svg>