<svg xmlns="http://www.w3.org/2000/svg" viewBox="0 0 394.6 108.11"><defs><style>.cls-1{fill:#f3b25f;}.cls-2{fill:#f2a653;}.cls-3{fill:#ea9642;}</style></defs><title>falafel</title><g id="Layer_2" data-name="Layer 2"><g id="burger_ingredient_illustration_set" data-name="burger ingredient illustration set"><path class="cls-1" d="M200.69,0C0,0,0,62.4,0,62.4s10.72,43.26,200.69,43.26S394.57,62.4,394.57,62.4,401.39,0,200.69,0Z"/><path class="cls-2" d="M386.48,43C370.21,55.19,319,84.14,200.21,84.14c-123.75,0-174.5-31.4-188.61-42.55C0,53,0,62.35,0,62.35s10.72,43.26,200.69,43.26S394.57,62.35,394.57,62.35,395.5,53.79,386.48,43Z"/><path class="cls-2" d="M117.49,67.88s.08-1.84-3.39-1.76S110.49,68,110.49,68s-.77,2.52,4.06,2.42S117.49,67.88,117.49,67.88Z"/><path class="cls-2" d="M116.6,72.9s-.78,2.52,4.06,2.41,2.94-2.56,2.94-2.56.08-1.84-3.4-1.76S116.6,72.9,116.6,72.9Z"/><path class="cls-2" d="M120.19,67.82s-.78,2.52,4,2.41,3-2.56,3-2.56.08-1.83-3.4-1.76S120.19,67.82,120.19,67.82Z"/><path class="cls-2" d="M367,41.43s.08-1.84-3.4-1.76-3.6,1.91-3.6,1.91S359.2,44.1,364,44,367,41.43,367,41.43Z"/><path class="cls-2" d="M366.09,46.45s-.78,2.51,4.05,2.41,2.95-2.56,2.95-2.56.08-1.84-3.4-1.76S366.09,46.45,366.09,46.45Z"/><path class="cls-2" d="M369.68,41.37s-.78,2.52,4.05,2.41,2.95-2.56,2.95-2.56.08-1.84-3.4-1.76S369.68,41.37,369.68,41.37Z"/><path class="cls-3" d="M292.07,101.3s-29.74,4.7-117.4,4S26.67,83,26.67,83C24,85,33,90,60.57,95.56s61.43,9.77,99,11.77,87.73-.33,112.73-1.67S292.07,101.3,292.07,101.3Z"/></g></g></svg>