<svg xmlns="http://www.w3.org/2000/svg" viewBox="0 0 432.89 104.3"><defs><style>.cls-1{fill:#adce73;}.cls-2{fill:#a1ba6a;}.cls-3{fill:#92a55e;}</style></defs><title>lettuce</title><g id="Layer_2" data-name="Layer 2"><g id="burger_ingredient_illustration_set" data-name="burger ingredient illustration set"><path class="cls-1" d="M416.81,25.33S412.81,0,215.14,0,13.47,25.33,13.47,25.33c-26,22.67,8.61,54.25,28.67,59.34s34.67-34,47.33-33.34,9.34,49.34,36.67,52.78,28.67-40.78,56-42.78,19.33,41.34,57.33,42.78,36-37.44,62-41.44,30.67,46.66,58,37.33,14-36.67,28-41.67,28.67,17.67,39.34,0S416.81,25.33,416.81,25.33Z"/><path class="cls-2" d="M383.78,44.14c10.39-3.8,18.78-18.34,5.92-31.57C363.87,6.27,313.47,0,215.14,0,122.61,0,72.52,5.55,45.41,11.46c-3.63,6-8.66,17.42,2.56,21.4,15.5,5.5,23.5-13.19,26-12.6s-4.5,18.6,2.5,20.1,8-23.5,15-23.5,13,31.5,31,30,25.32-21.56,34.91-21.53S204,70.13,223.47,68.84s19-36.48,32-36.48,34,20,51,17S335,33.86,346,32.86,372.08,48.42,383.78,44.14Z"/><path class="cls-3" d="M81.32,55.22c-3.82-1-16.18,37-47.94,24.48S2.47,37.86,2.47,37.86c-3.29.16-6,14,10.67,30s30.33,21,43.67,14S85.14,56.19,81.32,55.22Z"/><path class="cls-3" d="M288.14,66.19c-11.33,8-22.53,34.19-47.33,35-30.35,1-34-37.66-40.34-34.66,0,0,3.67,37.58,40.67,37.58s37.67-40.64,60.33-41.44C301.47,62.67,299.47,58.19,288.14,66.19Z"/><path class="cls-3" d="M426.6,34.45c-3.62,1.33,1.87,6.16,3.62,12.91s-3.06,13.94-9.5,15.06-24.5-6.56-28.09-6.06S390.51,59,390.51,59c8.8-4.6,28,14.84,38.3.31S426.6,34.45,426.6,34.45Z"/><path class="cls-2" d="M19,43.46s1,1.54,3.78-.55,1.82-3.65,1.82-3.65-.84-2.5-4.7.4S19,43.46,19,43.46Z"/><path class="cls-2" d="M16.8,38.86s-.84-2.5-4.7.4-.9,3.8-.9,3.8,1,1.54,3.78-.55S16.8,38.86,16.8,38.86Z"/><path class="cls-2" d="M16.84,45.08s-.83-2.5-4.7.4-.9,3.8-.9,3.8,1,1.54,3.79-.55S16.84,45.08,16.84,45.08Z"/><path class="cls-2" d="M221.87,86.57s-1.71.65-.28,3.81,3.18,2.56,3.18,2.56,2.62-.27.62-4.67S221.87,86.57,221.87,86.57Z"/><path class="cls-2" d="M226.84,85.41s2.62-.27.62-4.67S224,79,224,79s-1.72.65-.28,3.81S226.84,85.41,226.84,85.41Z"/><path class="cls-2" d="M220.76,84.11s2.62-.27.62-4.67-3.51-1.7-3.51-1.7-1.72.65-.29,3.81S220.76,84.11,220.76,84.11Z"/><path class="cls-2" d="M410.15,40s1,1.53,3.79-.55,1.81-3.66,1.81-3.66-.83-2.5-4.7.41S410.15,40,410.15,40Z"/><path class="cls-2" d="M408,35.44s-.83-2.5-4.7.4-.9,3.8-.9,3.8,1,1.54,3.79-.55S408,35.44,408,35.44Z"/><path class="cls-2" d="M408,41.66s-.84-2.5-4.7.4-.9,3.8-.9,3.8,1,1.53,3.78-.55S408,41.66,408,41.66Z"/></g></g></svg>