<svg xmlns="http://www.w3.org/2000/svg" viewBox="0 0 199.38 117.34"><defs><style>.cls-1,.cls-2{fill:#fff;}.cls-1{fill-rule:evenodd;}</style></defs><title>Burger</title><g id="Layer_2" data-name="Layer 2"><g id="Object"><g id="Burger"><path class="cls-1" d="M179,68.67h2.31c2.68,0,4.21,1.39,4.21,4.12,0,2.45-1.76,3.74-4.44,3.74H179Zm-12.12-6v6.06h2.59V88.88h-2.59V95h14.94v-6.1H179V81.71c4.11,0,4.62,1,4.62,5.23,0,5.41,2.92,8.6,9,8.6,5.14,0,6.75-3.56,6.75-7.4V85.6h-3.09v1.52c0,.93-.37,1.48-1.07,1.48s-1.11-1.16-1.11-3.14a7,7,0,0,0-6.05-6.57c3.83-.55,6.7-3.1,6.7-6.7,0-5.27-2.08-9.53-12.81-9.53Zm-30.19,0v6.1h2.91V88.83h-2.91V95h27.88V84.53h-8v4.3h-7.39V81.3H158V75.15h-8.78V68.76h7.39v4.12h8V62.66ZM123.78,95H133V83.42h1.85v-5H119.53v5h2.82v1.94c-.69,1.21-1.8,2.27-4.44,2.27-4,0-6.33-3.79-6.33-8.51s2.59-8.69,6.33-8.69c2.73,0,5.13,2.13,5.27,5.87h8.28V62.66h-6.89l-1,3.33c-.74-.74-2.31-3.88-9-3.88-7.21,0-14.19,6.93-14.19,17s6.43,16.28,14.52,16.28c3.56,0,6.42-1.62,7.44-3.33ZM78.89,68.67H81.2c2.68,0,4.21,1.39,4.21,4.12,0,2.45-1.76,3.74-4.44,3.74H78.89Zm-12.12-6v6.06h2.59V88.88H66.77V95H81.71v-6.1H78.89V81.71c4.11,0,4.62,1,4.62,5.23,0,5.41,2.91,8.6,9,8.6,5.13,0,6.75-3.56,6.75-7.4V85.6h-3.1v1.52c0,.93-.37,1.48-1.06,1.48S94,87.44,94,85.46a7,7,0,0,0-6.06-6.57c3.84-.55,6.71-3.1,6.71-6.7,0-5.27-2.08-9.53-12.81-9.53Zm-34.54,0v6h2.59V80.09c0,10.5,5,15.4,14.34,15.68,8.69,0,13.27-5,13.27-15.91V68.63h2.49v-6H51.24v6.1h2.49v9.81c0,8-1.85,9.06-4.67,9.06s-4.62-1.57-4.62-9v-10h2.5v-6ZM13.18,89v-8h3.56c2.55,0,3.89,1.72,3.89,4.08a3.76,3.76,0,0,1-3.75,4Zm0-20.21h2.91c1.76,0,3.06,1.25,3.06,3.38S18.45,75.7,16,75.7H13.18ZM.93,95H18.5c8.92,0,12.58-2.86,12.58-9.38,0-4.49-2.78-6.94-6.11-7.87,3.47-1.38,4.53-3.28,4.53-7.16,0-5-3.65-7.91-11.32-7.91H.93v6H3.61V89H.93Z"/><polygon class="cls-1" points="150.85 45.42 154.96 56.38 104.87 56.38 45.35 56.38 49.46 45.42 45.35 34.46 104.87 34.46 154.96 34.46 150.85 45.42"/><path class="cls-1" d="M143,106.58h4.55v-2.51h-6.69l-1,5.81,2.16,1a2.1,2.1,0,0,1,1.59-.77,1.67,1.67,0,1,1-.14,3.32,3.31,3.31,0,0,1-2.36-1.25l-1.84,1.91a5.45,5.45,0,0,0,4.19,2c2.45,0,5-1.44,5-4.28a3.83,3.83,0,0,0-3.94-4,3.6,3.6,0,0,0-1.82.4Zm-11.2,1.58,1.69-.8v6.27H131.8v2.25h6.76v-2.25H137v-9.56h-3a7.07,7.07,0,0,1-3,2.21Zm-6.22,5.3c-.67,0-1.5-1.37-1.5-3.55s.77-3.36,1.4-3.34c.83,0,1.47,1.45,1.47,3.46S126.36,113.46,125.58,113.46Zm0,2.62c3.06,0,4.77-2.3,4.77-6s-1.54-6.18-4.85-6.18c-2.81,0-4.77,2.48-4.77,6.06C120.73,114.07,122.76,116.08,125.58,116.08Zm-12.69-8.18a3.09,3.09,0,0,1,2.08-1.28c.78,0,1.42.25,1.42,1.11,0,1-1.79,1.76-3,2.82a9,9,0,0,0-2.47,2.88v2.45h9.13v-3.6h-2.84v1.35h-3a10.12,10.12,0,0,1,2.54-2.27c1.79-1.16,2.7-1.84,2.7-3.78a3.71,3.71,0,0,0-4-3.7,5.69,5.69,0,0,0-4.39,2.1Zm-17.22-3.83v2.23h1.06v7.33H95.67v2.25h10.19v-3.82h-2.92v1.57h-2.71v-2.75h3.21v-2.25h-3.21V106.3h2.71v1.5h2.92v-3.73ZM93,111.6c-.16.17-1.27,1.66-2.69,1.66-1.61,0-2.47-1.51-2.47-3.18,0-1.84.8-3.34,2-3.34s1.74,1,1.79,2.13h3v-4.8H92l-.39.94a3.12,3.12,0,0,0-2.6-1.15c-2.22,0-5.14,2.33-5.14,6.22s2.38,6.07,6,6.07A7,7,0,0,0,95,113.77Zm-9.79-5.35v-2.18H78.15v2.18h1.14v4l-4.14-6.2H70.3v2.18h1v7.45h-1v2.18h5.19V113.7H74.17v-4.26l4.31,6.44h3.64v-9.63Zm-19.4-2.18v2.23H64.9v7.33H63.83v2.25h5.61v-2.25h-1V106.3h1v-2.23Zm-12,11.81h3l.19-1.3a4.54,4.54,0,0,0,3.53,1.55c2,0,4.48-.95,4.48-3.58,0-4-6.7-3.57-6.7-5.31,0-.59.68-.89,1.17-.89a2,2,0,0,1,2.16,2h3.06v-4.24h-2.9l-.17,1.42a3.79,3.79,0,0,0-3.53-1.73c-1.66,0-4,1.13-4,3.63,0,4.31,6.49,3.76,6.49,5.07,0,.71-.84.85-1.43.85S55,113,55,111.62H51.83Z"/><path class="cls-1" d="M14.81,113.68H24.7a.66.66,0,0,1,.66.65.67.67,0,0,1-.66.66H14.81a.66.66,0,0,1-.65-.66.65.65,0,0,1,.65-.65m-1.57-4.85H27.85a.66.66,0,0,1,.65.66h0a.65.65,0,0,1-.65.65H13.24a.66.66,0,0,1-.66-.65h0A.67.67,0,0,1,13.24,108.83Zm0,2.42h13a.66.66,0,0,1,0,1.32h-13a.66.66,0,0,1,0-1.32Zm0-4.84h13a.66.66,0,0,1,.65.66h0a.65.65,0,0,1-.65.65h-13a.66.66,0,0,1-.66-.65h0A.67.67,0,0,1,13.24,106.41ZM14.81,104H24.7a.66.66,0,0,1,.66.65h0a.67.67,0,0,1-.66.66H14.81a.66.66,0,0,1-.65-.66h0A.65.65,0,0,1,14.81,104Zm-1.9-2.25H26.8a2.91,2.91,0,0,1,2.54,1.42l3,4.81a2.69,2.69,0,0,1,.24.48H44.39v2.19H32.56a2.69,2.69,0,0,1-.24.48l-3,4.81a2.93,2.93,0,0,1-2.54,1.41H12.91a3,3,0,0,1-3-3v-9.63A3,3,0,0,1,12.91,101.74Z"/><path class="cls-1" d="M185.5,113.68h-9.89a.66.66,0,0,0-.66.65.67.67,0,0,0,.66.66h9.89a.67.67,0,0,0,.66-.66.66.66,0,0,0-.66-.65m1.57-4.85h-14.6a.66.66,0,0,0-.66.66h0a.66.66,0,0,0,.66.65h14.6a.66.66,0,0,0,.66-.65h0A.67.67,0,0,0,187.07,108.83Zm0,2.42H174a.66.66,0,0,0,0,1.32h13a.66.66,0,0,0,0-1.32Zm0-4.84H174a.67.67,0,0,0-.66.66h0a.66.66,0,0,0,.66.65h13a.66.66,0,0,0,.66-.65h0A.67.67,0,0,0,187.07,106.41ZM185.5,104h-9.89a.66.66,0,0,0-.66.65h0a.67.67,0,0,0,.66.66h9.89a.67.67,0,0,0,.66-.66h0A.66.66,0,0,0,185.5,104Zm1.9-2.25H173.51a2.91,2.91,0,0,0-2.54,1.42L168,108q-.13.24-.24.48H155.92v2.19h11.83q.1.24.24.48l3,4.81a2.93,2.93,0,0,0,2.54,1.41H187.4a3,3,0,0,0,3-3v-9.63A3,3,0,0,0,187.4,101.74Z"/><path class="cls-1" d="M16.45,26.75a2.73,2.73,0,1,1-2.73,2.73,2.73,2.73,0,0,1,2.73-2.73"/><path class="cls-1" d="M179.08,26.75a2.73,2.73,0,1,1-2.73,2.73,2.73,2.73,0,0,1,2.73-2.73"/><path class="cls-1" d="M153.88,42.15h44.58V44.6H153ZM0,42.15H44.58l.92,2.45H0Zm45.5,4.09H0V48.7H44.58Zm153,0H153l.92,2.46h44.58Z"/><path class="cls-2" d="M58.91,42.1H60v5.43c0,2.15-1.06,2.81-2.46,2.81a3.36,3.36,0,0,1-1.12-.19l.16-.85a2.59,2.59,0,0,0,.88.15c.93,0,1.49-.42,1.49-2Z"/><path class="cls-2" d="M68.63,46.07c0,2.79-1.69,4.27-3.77,4.27s-3.64-1.66-3.64-4.11S62.82,42,65,42,68.63,43.66,68.63,46.07Zm-6.29.13c0,1.74.94,3.29,2.59,3.29s2.6-1.53,2.6-3.37c0-1.62-.85-3.3-2.59-3.3S62.34,44.42,62.34,46.2Z"/><path class="cls-2" d="M71,42.1v3.39H75V42.1H76v8.11H75v-3.8H71v3.8H70V42.1Z"/><path class="cls-2" d="M77.83,50.21V42.1H79l2.6,4.1A22.35,22.35,0,0,1,83,48.84h0c-.1-1.09-.12-2.07-.12-3.34V42.1h1v8.11H82.86l-2.57-4.12a24.81,24.81,0,0,1-1.52-2.71l0,0c.06,1,.08,2,.08,3.34v3.47Z"/><path class="cls-2" d="M92.16,47.66l-.84,2.55H90.24L93,42.1h1.27L97,50.21H95.91L95,47.66Zm2.66-.82L94,44.5c-.18-.53-.3-1-.42-1.48h0c-.12.48-.25,1-.41,1.47l-.79,2.35Z"/><path class="cls-2" d="M98.21,50.21V42.1h1.15l2.6,4.1a24.1,24.1,0,0,1,1.46,2.64h0c-.1-1.09-.12-2.07-.12-3.34V42.1h1v8.11h-1.06l-2.58-4.12a24.81,24.81,0,0,1-1.52-2.71l0,0c.06,1,.08,2,.08,3.34v3.47Z"/><path class="cls-2" d="M106.13,42.2a16.08,16.08,0,0,1,2.23-.16,4.63,4.63,0,0,1,3.29,1A3.74,3.74,0,0,1,112.79,46a4.26,4.26,0,0,1-1.17,3.15A5,5,0,0,1,108,50.28a17.16,17.16,0,0,1-1.9-.09Zm1.05,7.18a6.38,6.38,0,0,0,1.06.06A3.11,3.11,0,0,0,111.69,46c0-1.92-1.07-3.13-3.28-3.13a5.3,5.3,0,0,0-1.23.11Z"/><path class="cls-2" d="M120.91,42.1h1v5.43c0,2.15-1,2.81-2.45,2.81a3.31,3.31,0,0,1-1.12-.19l.16-.85a2.52,2.52,0,0,0,.87.15c.94,0,1.5-.42,1.5-2Z"/><path class="cls-2" d="M125,47.66l-.84,2.55h-1.09l2.76-8.11h1.26l2.77,8.11h-1.12l-.86-2.55Zm2.66-.82-.79-2.34c-.18-.53-.31-1-.43-1.48h0c-.12.48-.25,1-.41,1.47l-.79,2.35Z"/><path class="cls-2" d="M131.06,50.21V42.1h1.14l2.61,4.1a22.35,22.35,0,0,1,1.45,2.64h0c-.1-1.09-.12-2.07-.12-3.34V42.1h1v8.11h-1.06l-2.57-4.12A24.81,24.81,0,0,1,132,43.38l0,0c.06,1,.09,2,.09,3.34v3.47Z"/><path class="cls-2" d="M143.18,46.41H140v2.92h3.52v.88H139V42.1h4.38V43H140v2.56h3.16Z"/><path class="cls-2" d="M23.12,18.67a19.63,19.63,0,0,1,2.62-1.78A5.24,5.24,0,0,1,29.36,16a3.4,3.4,0,0,1,2.29,1.76,3.69,3.69,0,0,1,.5,2.84,5.23,5.23,0,0,1-2.68,3.15,4.92,4.92,0,0,1-1.2.56l2.54,4.43-1.43.82Zm4.48,4.51a5.86,5.86,0,0,0,1.25-.56c1.72-1,2.29-2.43,1.42-3.95S28,17.1,26.42,18a7,7,0,0,0-1.28.89Z"/><path class="cls-2" d="M35.5,12.19a16.91,16.91,0,0,1,2.83-1.42,5.24,5.24,0,0,1,3.81-.41A3.2,3.2,0,0,1,44,12.24a3.35,3.35,0,0,1-1,3.9l0,.06a3.17,3.17,0,0,1,2.69,1.68,19.45,19.45,0,0,0,2.22,2.88l-1.58.64a16.31,16.31,0,0,1-1.92-2.51c-1-1.49-1.89-1.85-3.29-1.35l-1.44.58,2.05,5.12-1.52.61ZM39.19,17l1.56-.62c1.63-.66,2.3-2,1.76-3.32-.61-1.52-2-1.75-3.6-1.12a6.55,6.55,0,0,0-1.45.75Z"/><path class="cls-2" d="M56.37,12l-4.76,1.36,1.27,4.41,5.3-1.51.38,1.32-6.88,2L48.17,7.32l6.61-1.89.38,1.33-5,1.44,1.11,3.86L56,10.7Z"/><path class="cls-2" d="M72.24,9.13c-.41-1.73-.9-3.81-1.16-5.38H71c-.16,1.55-.4,3.2-.72,5.05l-1.11,6.47L68,15.5l-3.1-5.6C64,8.25,63.15,6.72,62.53,5.3h0c.25,1.57.53,3.69.76,5.59l.64,5.43-1.54.28L61,3.91,63,3.54l3.23,5.67c.8,1.45,1.48,2.75,2,4h0c.09-1.32.29-2.77.56-4.45L70,2.27l2.06-.37,3,12.39-1.58.28Z"/><path class="cls-2" d="M80,1l1.34,12.66-1.63.17L78.38,1.19Z"/><path class="cls-2" d="M87.26.41l.35,7.53c.13,2.85,1.45,4,3.15,3.92,1.89-.09,3-1.39,2.91-4.2L93.32.13,95,.05l.34,7.42c.18,3.91-1.8,5.61-4.55,5.73S86.13,11.92,86,8L85.6.48Z"/><path class="cls-2" d="M111.44,7.55c0-1.78,0-3.92,0-5.5h-.06c-.49,1.48-1.09,3-1.8,4.77l-2.49,6.08-1.25-.05L104.06,6.7c-.53-1.82-1-3.48-1.27-5h0c-.1,1.59-.28,3.72-.48,5.62l-.56,5.44-1.56-.06L101.55,0l2.09.08,1.93,6.25c.46,1.58.84,3,1.11,4.33h0c.38-1.27.89-2.64,1.52-4.23L110.76.37l2.1.09.27,12.75-1.6-.06Z"/><path class="cls-2" d="M135.27,10.77c.22-1.77.49-3.89.79-5.45H136c-.7,1.4-1.5,2.86-2.44,4.48l-3.31,5.67L129,15.24l-.95-6.33c-.27-1.87-.48-3.58-.57-5.13h0c-.32,1.56-.79,3.64-1.24,5.5l-1.3,5.31-1.54-.28,3.13-12.37,2.06.37,1,6.45c.24,1.64.42,3.09.5,4.45h.06a43.42,43.42,0,0,1,2.08-4l3.32-5.66,2.06.37-1.48,12.67-1.58-.29Z"/><path class="cls-2" d="M148.65,13.89l-4.76-1.37-1.26,4.42,5.3,1.52-.38,1.32-6.89-2,3.52-12.24,6.61,1.9-.38,1.32-5-1.44-1.11,3.87L149,12.58Z"/><path class="cls-2" d="M155,18.2l-2.74,3.21-1.58-.64,8.83-10.15,1.84.75-.81,13.43-1.62-.66.26-4.23Zm4.35.4.23-3.87c0-.88.17-1.65.27-2.4h0c-.46.62-.94,1.26-1.46,1.89l-2.55,2.93Z"/><path class="cls-2" d="M170.52,17.36l-3.36-1.91.69-1.22,8.2,4.65-.69,1.22L172,18.18,166.38,28l-1.45-.82Z"/></g></g></g></svg>