<?xml version="1.0" encoding="utf-8"?>
<!-- Generator: Adobe Illustrator 24.0.1, SVG Export Plug-In . SVG Version: 6.00 Build 0)  -->
<svg version="1.1" id="Layer_1" xmlns="http://www.w3.org/2000/svg" xmlns:xlink="http://www.w3.org/1999/xlink" x="0px" y="0px"
	 viewBox="0 0 199.4 117.3" style="enable-background:new 0 0 199.4 117.3;" xml:space="preserve">
<style type="text/css">
	.st0{fill-rule:evenodd;clip-rule:evenodd;}
</style>
<title>Burger</title>
<g id="Layer_2_1_">
	<g id="Object">
		<g id="Burger">
			<path class="st0" d="M179,68.7h2.3c2.7,0,4.2,1.4,4.2,4.1c0,2.4-1.8,3.7-4.4,3.7H179V68.7z M166.9,62.7v6.1h2.6v20.2h-2.6V95
				h14.9v-6.1H179v-7.2c4.1,0,4.6,1,4.6,5.2c0,5.4,2.9,8.6,9,8.6c5.1,0,6.8-3.6,6.8-7.4v-2.5h-3.1v1.5c0,0.9-0.4,1.5-1.1,1.5
				s-1.1-1.2-1.1-3.1c-0.2-3.4-2.7-6.1-6.1-6.6c3.8-0.6,6.7-3.1,6.7-6.7c0-5.3-2.1-9.5-12.8-9.5L166.9,62.7z M136.7,62.7v6.1h2.9
				v20.1h-2.9V95h27.9V84.5h-8v4.3h-7.4v-7.5h8.8v-6.2h-8.8v-6.4h7.4v4.1h8V62.7L136.7,62.7z M123.8,95h9.2V83.4h1.9v-5h-15.3v5h2.8
				v1.9c-0.7,1.2-1.8,2.3-4.4,2.3c-4,0-6.3-3.8-6.3-8.5s2.6-8.7,6.3-8.7c2.7,0,5.1,2.1,5.3,5.9h8.3V62.7h-6.9l-1,3.3
				c-0.7-0.7-2.3-3.9-9-3.9c-7.2,0-14.2,6.9-14.2,17s6.4,16.3,14.5,16.3c3.6,0,6.4-1.6,7.4-3.3L123.8,95z M78.9,68.7h2.3
				c2.7,0,4.2,1.4,4.2,4.1c0,2.4-1.8,3.7-4.4,3.7h-2.1V68.7z M66.8,62.7v6.1h2.6v20.2h-2.6V95h14.9v-6.1h-2.8v-7.2
				c4.1,0,4.6,1,4.6,5.2c0,5.4,2.9,8.6,9,8.6c5.1,0,6.8-3.6,6.8-7.4v-2.5h-3.1v1.5c0,0.9-0.4,1.5-1.1,1.5S94,87.4,94,85.5
				c-0.2-3.4-2.7-6.1-6.1-6.6c3.8-0.6,6.7-3.1,6.7-6.7c0-5.3-2.1-9.5-12.8-9.5L66.8,62.7z M32.2,62.7v6h2.6v11.4
				c0,10.5,5,15.4,14.3,15.7c8.7,0,13.3-5,13.3-15.9V68.6h2.5v-6H51.2v6.1h2.5v9.8c0,8-1.8,9.1-4.7,9.1s-4.6-1.6-4.6-9v-10h2.5v-6
				L32.2,62.7z M13.2,89v-8h3.6c2.5,0,3.9,1.7,3.9,4.1c0.1,2.1-1.4,3.9-3.5,4c-0.1,0-0.2,0-0.2,0L13.2,89z M13.2,68.8h2.9
				c1.8,0,3.1,1.3,3.1,3.4s-0.7,3.5-3.1,3.5h-2.8V68.8z M0.9,95h17.6c8.9,0,12.6-2.9,12.6-9.4c0-4.5-2.8-6.9-6.1-7.9
				c3.5-1.4,4.5-3.3,4.5-7.2c0-5-3.6-7.9-11.3-7.9H0.9v6h2.7V89H0.9V95z"/>
			<polygon class="st0" points="150.9,45.4 155,56.4 104.9,56.4 45.3,56.4 49.5,45.4 45.3,34.5 104.9,34.5 155,34.5 			"/>
			<path class="st0" d="M143,106.6h4.6v-2.5h-6.7l-1,5.8l2.2,1c0.4-0.5,1-0.8,1.6-0.8c0.9-0.1,1.7,0.6,1.8,1.6
				c0.1,0.9-0.6,1.7-1.6,1.8c-0.1,0-0.2,0-0.3,0c-0.9-0.1-1.8-0.5-2.4-1.3l-1.8,1.9c1,1.3,2.6,2,4.2,2c2.4,0,5-1.4,5-4.3
				c0.1-2.1-1.5-3.9-3.7-4c-0.1,0-0.2,0-0.3,0c-0.6,0-1.3,0.1-1.8,0.4L143,106.6z M131.8,108.2l1.7-0.8v6.3h-1.7v2.3h6.8v-2.3H137
				v-9.6h-3c-0.8,1-1.8,1.8-3,2.2L131.8,108.2z M125.6,113.5c-0.7,0-1.5-1.4-1.5-3.6s0.8-3.4,1.4-3.3c0.8,0,1.5,1.4,1.5,3.5
				S126.4,113.5,125.6,113.5z M125.6,116.1c3.1,0,4.8-2.3,4.8-6s-1.5-6.2-4.8-6.2c-2.8,0-4.8,2.5-4.8,6.1
				C120.7,114.1,122.8,116.1,125.6,116.1z M112.9,107.9c0.5-0.7,1.2-1.2,2.1-1.3c0.8,0,1.4,0.3,1.4,1.1c0,1-1.8,1.8-3,2.8
				c-1,0.8-1.9,1.8-2.5,2.9v2.4h9.1v-3.6h-2.8v1.3h-3c0.7-0.9,1.6-1.7,2.5-2.3c1.8-1.2,2.7-1.8,2.7-3.8c0-2-1.7-3.7-3.7-3.7
				c-0.1,0-0.2,0-0.3,0c-1.7,0-3.3,0.8-4.4,2.1L112.9,107.9z M95.7,104.1v2.2h1.1v7.3h-1.1v2.3h10.2v-3.8h-2.9v1.6h-2.7v-2.8h3.2
				v-2.3h-3.2v-2.3h2.7v1.5h2.9v-3.7L95.7,104.1z M93,111.6c-0.2,0.2-1.3,1.7-2.7,1.7c-1.6,0-2.5-1.5-2.5-3.2c0-1.8,0.8-3.3,2-3.3
				s1.7,1,1.8,2.1h3v-4.8H92l-0.4,0.9c-0.6-0.8-1.6-1.2-2.6-1.2c-2.2,0-5.1,2.3-5.1,6.2s2.4,6.1,6,6.1c2,0,3.8-0.9,5.1-2.4L93,111.6
				z M83.2,106.2v-2.2h-5.1v2.2h1.1v4l-4.1-6.2h-4.8v2.2h1v7.4h-1v2.2h5.2v-2.2h-1.3v-4.3l4.3,6.4h3.6v-9.6H83.2z M63.8,104.1v2.2
				h1.1v7.3h-1.1v2.3h5.6v-2.3h-1v-7.3h1v-2.2H63.8z M51.8,115.9h3l0.2-1.3c0.9,1,2.2,1.6,3.5,1.6c2,0,4.5-0.9,4.5-3.6
				c0-4-6.7-3.6-6.7-5.3c0-0.6,0.7-0.9,1.2-0.9c1.1-0.1,2.1,0.7,2.2,1.8c0,0.1,0,0.1,0,0.2h3.1v-4.2h-2.9l-0.2,1.4
				c-0.8-1.2-2.1-1.9-3.5-1.7c-1.7,0-4,1.1-4,3.6c0,4.3,6.5,3.8,6.5,5.1c0,0.7-0.8,0.8-1.4,0.8S55,113,55,111.6h-3.2L51.8,115.9z"/>
			<path class="st0" d="M14.8,113.7h9.9c0.4,0,0.7,0.3,0.7,0.7c0,0.4-0.3,0.7-0.7,0.7h-9.9c-0.4,0-0.7-0.3-0.6-0.7
				C14.2,114,14.5,113.7,14.8,113.7L14.8,113.7 M13.2,108.8h14.6c0.4,0,0.7,0.3,0.6,0.7l0,0c0,0.4-0.3,0.7-0.6,0.7c0,0,0,0,0,0H13.2
				c-0.4,0-0.7-0.3-0.7-0.7l0,0C12.6,109.1,12.9,108.8,13.2,108.8z M13.2,111.2h13c0.4,0,0.7,0.3,0.7,0.7c0,0.4-0.3,0.7-0.7,0.7h-13
				c-0.4,0-0.7-0.3-0.7-0.7C12.6,111.5,12.9,111.3,13.2,111.2z M13.2,106.4h13c0.4,0,0.7,0.3,0.6,0.7l0,0c0,0.4-0.3,0.7-0.6,0.7
				c0,0,0,0,0,0h-13c-0.4,0-0.7-0.3-0.7-0.7l0,0C12.6,106.7,12.9,106.4,13.2,106.4z M14.8,104h9.9c0.4,0,0.7,0.3,0.7,0.7l0,0
				c0,0.4-0.3,0.7-0.7,0.7h-9.9c-0.4,0-0.7-0.3-0.6-0.7l0,0C14.2,104.3,14.5,104,14.8,104L14.8,104z M12.9,101.7h13.9
				c1,0,2,0.5,2.5,1.4l3,4.8c0.1,0.2,0.2,0.3,0.2,0.5h11.8v2.2H32.6c-0.1,0.2-0.1,0.3-0.2,0.5l-3,4.8c-0.5,0.9-1.5,1.4-2.5,1.4H12.9
				c-1.7,0-3-1.3-3-3v-9.6C9.9,103.1,11.3,101.7,12.9,101.7L12.9,101.7z"/>
			<path class="st0" d="M185.5,113.7h-9.9c-0.4,0-0.7,0.3-0.7,0.7c0,0.4,0.3,0.7,0.7,0.7h9.9c0.4,0,0.7-0.3,0.7-0.7
				C186.2,114,185.9,113.7,185.5,113.7 M187.1,108.8h-14.6c-0.4,0-0.7,0.3-0.7,0.7v0l0,0c0,0.4,0.3,0.7,0.7,0.7h14.6
				c0.4,0,0.7-0.3,0.7-0.7l0,0C187.7,109.1,187.4,108.8,187.1,108.8z M187.1,111.2H174c-0.4,0-0.7,0.3-0.7,0.7
				c0,0.4,0.3,0.7,0.7,0.7h13c0.4,0,0.7-0.3,0.7-0.7C187.7,111.5,187.4,111.3,187.1,111.2L187.1,111.2z M187.1,106.4H174
				c-0.4,0-0.7,0.3-0.7,0.7l0,0c0,0.4,0.3,0.7,0.7,0.7h13c0.4,0,0.7-0.3,0.7-0.7l0,0C187.7,106.7,187.4,106.5,187.1,106.4z
				 M185.5,104h-9.9c-0.4,0-0.7,0.3-0.7,0.7l0,0c0,0.4,0.3,0.7,0.7,0.7h9.9c0.4,0,0.7-0.3,0.7-0.7l0,0
				C186.2,104.3,185.9,104,185.5,104z M187.4,101.7h-13.9c-1,0-2,0.5-2.5,1.4l-3,4.8c-0.1,0.2-0.2,0.3-0.2,0.5h-11.8v2.2h11.8
				c0.1,0.2,0.1,0.3,0.2,0.5l3,4.8c0.5,0.9,1.5,1.4,2.5,1.4h13.9c1.7,0,3-1.3,3-3l0,0v-9.6C190.4,103.1,189.1,101.7,187.4,101.7
				L187.4,101.7L187.4,101.7z"/>
			<path class="st0" d="M16.5,26.7c1.5,0,2.7,1.2,2.7,2.7c0,1.5-1.2,2.7-2.7,2.7s-2.7-1.2-2.7-2.7l0,0C13.7,28,14.9,26.7,16.5,26.7"
				/>
			<path class="st0" d="M179.1,26.7c1.5,0,2.7,1.2,2.7,2.7c0,1.5-1.2,2.7-2.7,2.7c-1.5,0-2.7-1.2-2.7-2.7c0,0,0,0,0,0
				C176.4,28,177.6,26.7,179.1,26.7"/>
			<path class="st0" d="M153.9,42.1h44.6v2.4H153L153.9,42.1z M0,42.1h44.6l0.9,2.5H0V42.1z M45.5,46.2H0v2.5h44.6L45.5,46.2z
				 M198.5,46.2H153l0.9,2.5h44.6V46.2z"/>
			<path d="M58.9,42.1H60v5.4c0,2.2-1.1,2.8-2.5,2.8c-0.4,0-0.8-0.1-1.1-0.2l0.2-0.8c0.3,0.1,0.6,0.2,0.9,0.2c0.9,0,1.5-0.4,1.5-2
				L58.9,42.1z"/>
			<path d="M68.6,46.1c0,2.8-1.7,4.3-3.8,4.3s-3.6-1.7-3.6-4.1S62.8,42,65,42S68.6,43.7,68.6,46.1z M62.3,46.2
				c0,1.7,0.9,3.3,2.6,3.3c1.6,0,2.6-1.5,2.6-3.4c0-1.6-0.8-3.3-2.6-3.3S62.3,44.4,62.3,46.2z"/>
			<path d="M71,42.1v3.4h4v-3.4h1v8.1h-1v-3.8h-4v3.8h-1v-8.1H71z"/>
			<path d="M77.8,50.2v-8.1H79l2.6,4.1c0.5,0.8,1,1.7,1.4,2.6l0,0c-0.1-1.1-0.1-2.1-0.1-3.3v-3.4h1v8.1h-1l-2.6-4.1
				c-0.6-0.9-1.1-1.8-1.5-2.7l0,0c0.1,1,0.1,2,0.1,3.3v3.5L77.8,50.2z"/>
			<path d="M92.2,47.7l-0.8,2.5h-1.1l2.8-8.1h1.3l2.7,8.1h-1.1L95,47.7H92.2z M94.8,46.8L94,44.5c-0.2-0.5-0.3-1-0.4-1.5l0,0
				c-0.1,0.5-0.3,1-0.4,1.5l-0.8,2.3H94.8z"/>
			<path d="M98.2,50.2v-8.1h1.2l2.6,4.1c0.5,0.8,1,1.7,1.5,2.6l0,0c-0.1-1.1-0.1-2.1-0.1-3.3v-3.4h1v8.1h-1.1l-2.6-4.1
				c-0.6-0.9-1.1-1.8-1.5-2.7l0,0c0.1,1,0.1,2,0.1,3.3v3.5L98.2,50.2z"/>
			<path d="M106.1,42.2c0.7-0.1,1.5-0.2,2.2-0.2c1.2-0.1,2.4,0.3,3.3,1c0.8,0.8,1.2,1.9,1.1,3c0.1,1.2-0.4,2.3-1.2,3.2
				c-1,0.8-2.3,1.2-3.6,1.1c-0.6,0-1.3,0-1.9-0.1L106.1,42.2z M107.2,49.4c0.4,0,0.7,0.1,1.1,0.1c1.7,0.2,3.3-1,3.4-2.7
				c0-0.2,0-0.5,0-0.7c0-1.9-1.1-3.1-3.3-3.1c-0.4,0-0.8,0-1.2,0.1V49.4z"/>
			<path d="M120.9,42.1h1v5.4c0,2.2-1,2.8-2.4,2.8c-0.4,0-0.8-0.1-1.1-0.2l0.2-0.8c0.3,0.1,0.6,0.2,0.9,0.2c0.9,0,1.5-0.4,1.5-2
				L120.9,42.1z"/>
			<path d="M125,47.7l-0.8,2.5h-1.1l2.8-8.1h1.3l2.8,8.1h-1.1l-0.9-2.5H125z M127.7,46.8l-0.8-2.3c-0.2-0.5-0.3-1-0.4-1.5l0,0
				c-0.1,0.5-0.3,1-0.4,1.5l-0.8,2.3H127.7z"/>
			<path d="M131.1,50.2v-8.1h1.1l2.6,4.1c0.5,0.8,1,1.7,1.4,2.6l0,0c-0.1-1.1-0.1-2.1-0.1-3.3v-3.4h1v8.1h-1.1l-2.6-4.1
				c-0.6-0.9-1.1-1.8-1.5-2.7l0,0c0.1,1,0.1,2,0.1,3.3v3.5L131.1,50.2z"/>
			<path d="M143.2,46.4H140v2.9h3.5v0.9H139v-8.1h4.4V43H140v2.6h3.2L143.2,46.4z"/>
			<path d="M23.1,18.7c0.8-0.7,1.7-1.3,2.6-1.8c1.1-0.7,2.3-1,3.6-0.9c1,0.2,1.8,0.9,2.3,1.8c0.5,0.8,0.7,1.9,0.5,2.8
				c-0.4,1.4-1.4,2.5-2.7,3.1c-0.4,0.2-0.8,0.4-1.2,0.6l2.5,4.4l-1.4,0.8L23.1,18.7z M27.6,23.2c0.4-0.1,0.9-0.3,1.3-0.6
				c1.7-1,2.3-2.4,1.4-4S28,17.1,26.4,18c-0.5,0.2-0.9,0.5-1.3,0.9L27.6,23.2z"/>
			<path d="M35.5,12.2c0.9-0.6,1.8-1,2.8-1.4c1.2-0.6,2.5-0.8,3.8-0.4c0.9,0.3,1.5,1,1.9,1.9c0.6,1.4,0.2,3-1,3.9v0.1
				c1.1,0,2.2,0.7,2.7,1.7c0.6,1,1.4,2,2.2,2.9l-1.6,0.6c-0.7-0.8-1.4-1.6-1.9-2.5c-1-1.5-1.9-1.9-3.3-1.4l-1.4,0.6l2,5.1l-1.5,0.6
				L35.5,12.2z M39.2,17l1.6-0.6c1.6-0.7,2.3-2,1.8-3.3c-0.6-1.5-2-1.8-3.6-1.1c-0.5,0.2-1,0.4-1.5,0.8L39.2,17z"/>
			<path d="M56.4,12l-4.8,1.4l1.3,4.4l5.3-1.5l0.4,1.3l-6.9,2L48.2,7.3l6.6-1.9l0.4,1.3l-5,1.4l1.1,3.9l4.7-1.4L56.4,12z"/>
			<path d="M72.2,9.1c-0.4-1.7-0.9-3.8-1.2-5.4H71c-0.2,1.5-0.4,3.2-0.7,5.1l-1.1,6.5L68,15.5l-3.1-5.6c-0.9-1.6-1.8-3.2-2.4-4.6
				l0,0c0.3,1.6,0.5,3.7,0.8,5.6l0.6,5.4l-1.5,0.3L61,3.9l2-0.4l3.2,5.7c0.8,1.4,1.5,2.8,2,4l0,0c0.1-1.3,0.3-2.8,0.6-4.4L70,2.3
				l2.1-0.4l3,12.4l-1.6,0.3L72.2,9.1z"/>
			<path d="M80,1l1.3,12.7l-1.6,0.2L78.4,1.2L80,1z"/>
			<path d="M87.3,0.4l0.3,7.5c0.1,2.9,1.4,4,3.2,3.9c1.9-0.1,3-1.4,2.9-4.2l-0.4-7.5L95,0l0.3,7.4c0.2,3.9-1.8,5.6-4.6,5.7
				S86.1,11.9,86,8l-0.4-7.5L87.3,0.4z"/>
			<path d="M111.4,7.5c0-1.8,0-3.9,0-5.5h-0.1c-0.5,1.5-1.1,3-1.8,4.8l-2.5,6.1l-1.3-0.1l-1.8-6.2c-0.5-1.8-1-3.5-1.3-5l0,0
				c-0.1,1.6-0.3,3.7-0.5,5.6l-0.6,5.4l-1.6-0.1L101.6,0l2.1,0.1l1.9,6.3c0.5,1.6,0.8,3,1.1,4.3l0,0c0.4-1.3,0.9-2.6,1.5-4.2
				l2.6-6.1l2.1,0.1l0.3,12.8l-1.6-0.1L111.4,7.5z"/>
			<path d="M135.3,10.8c0.2-1.8,0.5-3.9,0.8-5.5H136c-0.7,1.4-1.5,2.9-2.4,4.5l-3.3,5.7l-1.3-0.2l-0.9-6.3c-0.3-1.9-0.5-3.6-0.6-5.1
				l0,0c-0.3,1.6-0.8,3.6-1.2,5.5l-1.3,5.3l-1.5-0.3l3.1-12.4l2.1,0.4l1,6.4c0.2,1.6,0.4,3.1,0.5,4.4h0.1c0.6-1.4,1.3-2.7,2.1-4
				l3.3-5.7l2.1,0.4l-1.5,12.7l-1.6-0.3L135.3,10.8z"/>
			<path d="M148.6,13.9l-4.8-1.4l-1.3,4.4l5.3,1.5l-0.4,1.3l-6.9-2l3.5-12.2l6.6,1.9l-0.4,1.3l-5-1.4l-1.1,3.9l4.7,1.4L148.6,13.9z"
				/>
			<path d="M155,18.2l-2.7,3.2l-1.6-0.6l8.8-10.1l1.8,0.8l-0.8,13.4l-1.6-0.7l0.3-4.2L155,18.2z M159.4,18.6l0.2-3.9
				c0-0.9,0.2-1.6,0.3-2.4l0,0c-0.5,0.6-0.9,1.3-1.5,1.9l-2.6,2.9L159.4,18.6z"/>
			<path d="M170.5,17.4l-3.4-1.9l0.7-1.2l8.2,4.6l-0.7,1.2l-3.4-1.9l-5.6,9.8l-1.4-0.8L170.5,17.4z"/>
		</g>
	</g>
</g>
</svg>
