<svg xmlns="http://www.w3.org/2000/svg" viewBox="0 0 369.13 148.67"><defs><style>.cls-1{fill:#a892ae;}.cls-2{fill:#927f99;}.cls-3{fill:#807087;}</style></defs><title>onions</title><g id="Layer_2" data-name="Layer 2"><g id="burger_ingredient_illustration_set" data-name="burger ingredient illustration set"><path class="cls-1" d="M249.9,62c-15.23-67.8-79.07-42.59-79.07-42.59S110.66,33.75,123.08,89s65.85,61.6,81,55.34C204.12,144.36,265.13,129.76,249.9,62Zm-49,70.66c-12.39,5.11-56-.05-66.12-45.16s39-56.83,39-56.83,52.09-20.57,64.52,34.75S200.94,132.62,200.94,132.62Z"/><path class="cls-2" d="M252.15,77c0,.32-7.15,63-58,63s-71-51-71-51c12.41,55.28,65.85,61.6,81,55.34C204.12,144.36,255.87,132,252.15,77Z"/><path class="cls-2" d="M190.13,22.7C121.8,22.7,133.56,79,133.56,79h0c-2.62-38.12,40.22-48.36,40.22-48.36s52.09-20.57,64.52,34.75A79.53,79.53,0,0,1,240.2,79h0S258.46,22.7,190.13,22.7Z"/><path class="cls-3" d="M250.29,99.59c-1.54,8.27-25.16,57.45-73.86,44.92s-55-57.47-55-57.47c-5.07.66,1.74,17.66,6.74,24.64S141.46,138,171.8,146.32s57.66-6.62,70.62-24.28S250.29,99.59,250.29,99.59Z"/><path class="cls-1" d="M130.3,47.17C115.07-20.63,51.22,4.59,51.22,4.59S-8.94,19,3.48,74.24s65.85,61.6,81,55.33C84.52,129.57,145.53,115,130.3,47.17Zm-49,70.66c-12.39,5.11-56,0-66.12-45.15s39-56.83,39-56.83S106.27-4.73,118.7,50.59,81.34,117.83,81.34,117.83Z"/><path class="cls-2" d="M132.55,62.26c0,.32-7.15,63-58,63s-71-51-71-51c12.41,55.27,65.85,61.6,81,55.33C84.52,129.57,136.27,117.19,132.55,62.26Z"/><path class="cls-2" d="M70.53,7.92C2.2,7.92,14,64.2,14,64.2h0C11.34,26.09,54.18,15.85,54.18,15.85S106.27-4.73,118.7,50.59a80.67,80.67,0,0,1,1.9,13.61h0S138.86,7.92,70.53,7.92Z"/><path class="cls-3" d="M130.69,84.81c-1.55,8.27-25.16,57.44-73.86,44.91s-55-57.47-55-57.47c-5.07.67,1.74,17.67,6.74,24.64s13.33,26.36,43.67,34.64,57.66-6.61,70.62-24.28S130.69,84.81,130.69,84.81Z"/><path class="cls-1" d="M366.69,48.35c-15.23-67.8-79.07-42.59-79.07-42.59s-60.17,14.38-47.75,69.65,65.85,61.6,81,55.34C320.91,130.75,381.92,116.15,366.69,48.35Zm-49,70.66c-12.39,5.11-56-.05-66.12-45.15s39-56.84,39-56.84,52.09-20.57,64.52,34.75S317.73,119,317.73,119Z"/><path class="cls-2" d="M368.94,63.43c0,.32-7.15,63-58,63s-71.05-51-71.05-51c12.41,55.28,65.85,61.6,81,55.34C320.91,130.75,372.66,118.36,368.94,63.43Z"/><path class="cls-2" d="M306.92,9.09c-68.33,0-56.57,56.29-56.57,56.29h0C247.73,27.26,290.57,17,290.57,17s52.09-20.57,64.52,34.75A80.54,80.54,0,0,1,357,65.38h0S375.25,9.09,306.92,9.09Z"/><path class="cls-3" d="M367.08,86c-1.54,8.26-25.16,57.44-73.86,44.91s-55-57.47-55-57.47c-5.07.66,1.74,17.66,6.74,24.64s13.33,26.36,43.67,34.64,57.66-6.62,70.62-24.28S367.08,86,367.08,86Z"/></g></g></svg>