<svg xmlns="http://www.w3.org/2000/svg" viewBox="0 0 392.7 79.08"><defs><style>.cls-1{fill:#99c456;}.cls-2{fill:#8eb24f;}.cls-3{fill:#d6f998;}.cls-4{fill:#829e46;}</style></defs><title>pickles</title><g id="Layer_2" data-name="Layer 2"><g id="burger_ingredient_illustration_set" data-name="burger ingredient illustration set"><path class="cls-1" d="M93.65,25.38S91.12,13.53,52.49,4.16s-46.31,0-46.31,0-22.25,43,32.66,56.28S93.65,25.38,93.65,25.38Z"/><path class="cls-2" d="M93.65,25.38a8.2,8.2,0,0,0-1.57-2.78C88.94,36.76,78,63.16,40.39,54,.14,44.28,5.38,14.17,9.21,2.25a8.45,8.45,0,0,0-3,1.92s-22.25,43,32.66,56.28S93.65,25.38,93.65,25.38Z"/><path class="cls-3" d="M21.63,7.91c-3.25,3.53,6.23,7.55,6.23,7.55s-9.69-1.16-9.44,4.22S35.48,17.3,35.48,17.3,24.89,4.39,21.63,7.91Z"/><path class="cls-3" d="M46.84,24.17S32.71,32.24,35.32,35.61s9.6-3.49,9.6-3.49-.65,9.75,4.31,9.08S48.3,24.53,46.84,24.17Z"/><path class="cls-3" d="M75.25,20.91c.78-3.95-17.92.32-17.92.32S65.56,36.09,69,32.46,65.35,25,65.35,25,74.46,24.87,75.25,20.91Z"/><path class="cls-2" d="M21.89,40.43s-1.4,1.19,1,3.69,3.85,1.34,3.85,1.34,2.37-1.14-1-4.61S21.89,40.43,21.89,40.43Z"/><path class="cls-2" d="M26.18,37.67s2.38-1.13-1-4.61-3.89-.42-3.89-.42-1.4,1.19,1,3.69S26.18,37.67,26.18,37.67Z"/><path class="cls-2" d="M20,38.49s2.37-1.14-1-4.61-3.88-.42-3.88-.42-1.4,1.19,1,3.69S20,38.49,20,38.49Z"/><path class="cls-4" d="M85.21,50.16S77.61,69.85,36,59.76,1.88,14.64,1.88,14.64c-3.87-.08-.69,16.41.15,20s7.42,20,33.17,26.2,40.17,1.24,46.22-4.61S85.21,50.16,85.21,50.16Z"/><path class="cls-1" d="M299.05,25.38s2.53-11.85,41.16-21.22,46.31,0,46.31,0,22.25,43-32.66,56.28S299.05,25.38,299.05,25.38Z"/><path class="cls-2" d="M299.05,25.38a8.2,8.2,0,0,1,1.57-2.78C303.76,36.76,314.7,63.16,352.31,54c40.25-9.76,35-39.87,31.18-51.79a8.45,8.45,0,0,1,3,1.92s22.25,43-32.66,56.28S299.05,25.38,299.05,25.38Z"/><path class="cls-3" d="M371.07,7.91c3.25,3.53-6.23,7.55-6.23,7.55s9.69-1.16,9.44,4.22-17.06-2.38-17.06-2.38S367.81,4.39,371.07,7.91Z"/><path class="cls-3" d="M345.86,24.17S360,32.24,357.38,35.61s-9.6-3.49-9.6-3.49.65,9.75-4.31,9.08S344.4,24.53,345.86,24.17Z"/><path class="cls-3" d="M317.45,20.91c-.78-3.95,17.92.32,17.92.32s-8.23,14.86-11.68,11.23S327.35,25,327.35,25,318.24,24.87,317.45,20.91Z"/><path class="cls-2" d="M370.81,40.43s1.4,1.19-1,3.69-3.85,1.34-3.85,1.34-2.37-1.14,1-4.61S370.81,40.43,370.81,40.43Z"/><path class="cls-2" d="M366.52,37.67s-2.38-1.13,1-4.61,3.89-.42,3.89-.42,1.4,1.19-1,3.69S366.52,37.67,366.52,37.67Z"/><path class="cls-2" d="M372.68,38.49s-2.37-1.14,1-4.61,3.88-.42,3.88-.42,1.4,1.19-1,3.69S372.68,38.49,372.68,38.49Z"/><path class="cls-4" d="M307.49,50.16s7.6,19.69,49.22,9.6,34.11-45.12,34.11-45.12c3.88-.08.69,16.41-.15,20s-7.42,20-33.17,26.2-40.17,1.24-46.22-4.61S307.49,50.16,307.49,50.16Z"/><path class="cls-1" d="M238.58,29.78s-5.47-10.81-45.22-10S148.6,31.67,148.6,31.67s-10.51,47.23,46,46S238.58,29.78,238.58,29.78Z"/><path class="cls-2" d="M238.58,29.78a8,8,0,0,0-2.22-2.28C237,42,233.13,70.31,194.44,71.13,153,72,150.39,41.54,151,29a8.61,8.61,0,0,0-2.44,2.63s-10.51,47.23,46,46.05S238.58,29.78,238.58,29.78Z"/><path class="cls-3" d="M164.5,31.34c-2.25,4.24,7.95,5.69,7.95,5.69s-9.66,1.37-8,6.5,15.88-6.66,15.88-6.66S166.74,27.09,164.5,31.34Z"/><path class="cls-3" d="M193,40.6s-11.59,11.41-8.2,14,8.38-5.83,8.38-5.83,1.86,9.59,6.49,7.67S194.53,40.57,193,40.6Z"/><path class="cls-3" d="M219.65,30.18c-.25-4-17.23,4.89-17.23,4.89s11.76,12.25,14.17,7.87-5.47-6.33-5.47-6.33S219.91,34.2,219.65,30.18Z"/><path class="cls-2" d="M173.07,62.7S172,64.21,175,66s4.07.31,4.07.31,2-1.71-2.13-4.21S173.07,62.7,173.07,62.7Z"/><path class="cls-2" d="M176.52,58.94s2-1.71-2.14-4.21-3.86.59-3.86.59-1.05,1.51,1.93,3.31S176.52,58.94,176.52,58.94Z"/><path class="cls-2" d="M170.77,61.31s2-1.71-2.14-4.21-3.86.59-3.86.59S163.72,59.2,166.7,61,170.77,61.31,170.77,61.31Z"/><path class="cls-4" d="M236.78,55.9s-2.31,21-45.13,21.88S147.12,42.9,147.12,42.9c-3.76.91,3.54,16,5.28,19.34s12.28,17.38,38.77,16.83S230.33,70,234.68,62.78,236.78,55.9,236.78,55.9Z"/></g></g></svg>