<svg xmlns="http://www.w3.org/2000/svg" viewBox="0 0 445.29 113.85"><defs><style>.cls-1{fill:#adce73;}.cls-2{fill:#9fb769;}.cls-3{fill:#d0ef8e;}.cls-4{fill:#90a35d;}</style></defs><title>rucola</title><g id="Layer_2" data-name="Layer 2"><g id="burger_ingredient_illustration_set" data-name="burger ingredient illustration set"><path class="cls-1" d="M366.8,97.07c7.13-9.68-7.23-18-7.23-18,13.85,4.91,52.26,13,57.4-.24s-10.42-18.93-10.42-18.93,46.06-6.06,35.54-29.21-44.69-5.79-44.69-5.79,12.1-13.62-.61-23.2-55.3,23.61-55.3,23.61,5.93-7.12-6.6-18.19C323.43-3,299.2,25.31,295.14,30.21c1.72-2.32,5.62-9.59-9.79-12.88-18.46-3.95-23.21,43.9-23.21,43.9,32.24,57.85,60.3,58.32,67.37,46.53,4-6.66-1-12.54-6.11-16.4C337.07,98,361.11,104.79,366.8,97.07Z"/><path class="cls-2" d="M329.51,107.76c4-6.66-1-12.54-6.11-16.4,13.67,6.61,37.71,13.43,43.4,5.71,7.13-9.68-7.23-18-7.23-18,13.85,4.91,52.26,13,57.4-.24s-10.42-18.93-10.42-18.93,46.06-6.06,35.54-29.21a21.26,21.26,0,0,0-3.14-5c-.94,4.52-3.7,13.59-11.17,16.82-10.11,4.38-31.13,7-32.45,9.29s9.73,17,4.57,21.39-47.09-10.57-50.28-7.64-1.44,17.54-5.4,19.33-29.13-12.84-33.29-10.62-4.74,14.28-8.24,16.36-33.92-36.38-40.55-29.44C294.38,119.08,322.44,119.55,329.51,107.76Z"/><path class="cls-3" d="M394.79,41.05c-1.84-3.59-23,11.52-55.08,16.79S245.06,43.25,247.4,60c0,0,47.06,9.52,83.93,4.12S396.62,44.64,394.79,41.05Z"/><path class="cls-2" d="M420.13,42.69s.1,1.29,2.53.94S425,42,425,42s.34-1.83-3-1.35S420.13,42.69,420.13,42.69Z"/><path class="cls-2" d="M420.34,39.09s.33-1.83-3-1.35-1.85,2-1.85,2,.1,1.29,2.53.94S420.34,39.09,420.34,39.09Z"/><path class="cls-2" d="M418.25,43s.33-1.84-3.05-1.36-1.85,2-1.85,2,.1,1.3,2.53,1S418.25,43,418.25,43Z"/><path class="cls-2" d="M369.68,66.17s-.33,1.26,2.09,1.72,2.77-.79,2.77-.79.91-1.62-2.45-2.26S369.68,66.17,369.68,66.17Z"/><path class="cls-2" d="M371,62.83s.91-1.62-2.45-2.26-2.41,1.34-2.41,1.34-.33,1.25,2.09,1.71S371,62.83,371,62.83Z"/><path class="cls-2" d="M367.81,65.81s.91-1.62-2.45-2.26S363,64.89,363,64.89s-.33,1.25,2.09,1.71S367.81,65.81,367.81,65.81Z"/><path class="cls-2" d="M323.27,74.46s-.51,1.19,1.8,2,2.86-.36,2.86-.36,1.15-1.47-2.07-2.61S323.27,74.46,323.27,74.46Z"/><path class="cls-2" d="M325.12,71.37s1.15-1.47-2.07-2.61-2.59.95-2.59.95-.51,1.19,1.8,2S325.12,71.37,325.12,71.37Z"/><path class="cls-2" d="M321.47,73.82s1.15-1.46-2.07-2.61-2.58,1-2.58,1-.52,1.2,1.8,2S321.47,73.82,321.47,73.82Z"/><path class="cls-2" d="M286.17,73.14s-.89,1,1,2.51,2.81.65,2.81.65,1.58-1-1.05-3.16S286.17,73.14,286.17,73.14Z"/><path class="cls-2" d="M289,70.88s1.58-1-1.05-3.17-2.75,0-2.75,0-.9.94,1,2.51S289,70.88,289,70.88Z"/><path class="cls-2" d="M284.71,71.93s1.58-1-1-3.17-2.76,0-2.76,0-.89.94,1,2.51S284.71,71.93,284.71,71.93Z"/><path class="cls-4" d="M418.67,77.07c2.81-15.21-8.56-16.31-8-17.14S453.14,54.8,444,31c0,0-6-18-20.44-13.33,0,0,15.73.85,19.5,13.67s-7.2,23.92-36.49,28.59c0,0,14.39,4.41,11.09,16.79s-30,12.52-58.07,2.38c0,0-1.43.77,10,4.42S415.85,92.27,418.67,77.07Z"/><path class="cls-4" d="M340.23,7.39C325-7.3,298.83,23.21,298.83,23.21a21.5,21.5,0,0,0-4.95-5.92c-3.47-3-11-5.33-20,4.21s-5.94,13-5.94,13c3.42-12.41,10.49-16,19.44-16.64s10.47,9.25,10.47,9.25c11.08-13.82,30.51-28.39,40.81-18.3s1.81,18,1.81,18C341.52,28.73,355.46,22.08,340.23,7.39Z"/><path class="cls-1" d="M78.49,97.07c-7.13-9.68,7.22-18,7.22-18-13.84,4.91-52.25,13-57.39-.24S38.73,59.94,38.73,59.94s-46-6.06-35.53-29.21,44.68-5.79,44.68-5.79-12.09-13.62.61-23.2S103.8,25.35,103.8,25.35s-5.94-7.12,6.6-18.19C121.86-3,146.09,25.31,150.14,30.21c-1.71-2.32-5.62-9.59,9.79-12.88,18.47-3.95,23.21,43.9,23.21,43.9-32.23,57.85-60.29,58.32-67.37,46.53-4-6.66,1-12.54,6.11-16.4C108.21,98,84.18,104.79,78.49,97.07Z"/><path class="cls-2" d="M115.77,107.76c-4-6.66,1-12.54,6.11-16.4-13.67,6.61-37.7,13.43-43.39,5.71-7.13-9.68,7.22-18,7.22-18-13.84,4.91-52.25,13-57.39-.24S38.73,59.94,38.73,59.94s-46-6.06-35.53-29.21a21.57,21.57,0,0,1,3.13-5C7.27,30.26,10,39.33,17.51,42.56c10.11,4.38,31.13,7,32.44,9.29s-9.72,17-4.57,21.39,47.1-10.57,50.29-7.64,1.44,17.54,5.4,19.33,29.12-12.84,33.28-10.62,4.75,14.28,8.25,16.36,33.92-36.38,40.54-29.44C150.91,119.08,122.85,119.55,115.77,107.76Z"/><path class="cls-3" d="M50.5,41.05c1.83-3.59,23,11.52,55.08,16.79S200.23,43.25,197.89,60c0,0-47.07,9.52-83.94,4.12S48.67,44.64,50.5,41.05Z"/><path class="cls-2" d="M25.15,42.69s-.1,1.29-2.53.94S20.26,42,20.26,42s-.34-1.83,3-1.35S25.15,42.69,25.15,42.69Z"/><path class="cls-2" d="M25,39.09s-.33-1.83,3.05-1.35,1.85,2,1.85,2-.1,1.29-2.53.94S25,39.09,25,39.09Z"/><path class="cls-2" d="M27,43s-.34-1.84,3.05-1.36,1.85,2,1.85,2-.1,1.3-2.53,1S27,43,27,43Z"/><path class="cls-2" d="M75.61,66.17s.32,1.26-2.09,1.72-2.77-.79-2.77-.79-.91-1.62,2.44-2.26S75.61,66.17,75.61,66.17Z"/><path class="cls-2" d="M74.25,62.83s-.91-1.62,2.45-2.26,2.41,1.34,2.41,1.34.32,1.25-2.09,1.71S74.25,62.83,74.25,62.83Z"/><path class="cls-2" d="M77.48,65.81s-.91-1.62,2.44-2.26,2.42,1.34,2.42,1.34.32,1.25-2.09,1.71S77.48,65.81,77.48,65.81Z"/><path class="cls-2" d="M122,74.46s.51,1.19-1.8,2-2.86-.36-2.86-.36-1.15-1.47,2.07-2.61S122,74.46,122,74.46Z"/><path class="cls-2" d="M120.17,71.37s-1.15-1.47,2.07-2.61,2.58.95,2.58.95.52,1.19-1.79,2S120.17,71.37,120.17,71.37Z"/><path class="cls-2" d="M123.81,73.82s-1.15-1.46,2.07-2.61,2.59,1,2.59,1,.52,1.2-1.8,2S123.81,73.82,123.81,73.82Z"/><path class="cls-2" d="M159.12,73.14s.89,1-1,2.51-2.81.65-2.81.65-1.58-1,1-3.16S159.12,73.14,159.12,73.14Z"/><path class="cls-2" d="M156.31,70.88s-1.58-1,1.05-3.17,2.76,0,2.76,0,.89.94-1,2.51S156.31,70.88,156.31,70.88Z"/><path class="cls-2" d="M160.58,71.93s-1.58-1,1-3.17,2.76,0,2.76,0,.89.94-1,2.51S160.58,71.93,160.58,71.93Z"/><path class="cls-4" d="M26.62,77.07c-2.82-15.21,8.56-16.31,8-17.14S-7.85,54.8,1.31,31c0,0,6-18,20.44-13.33,0,0-15.73.85-19.5,13.67s7.2,23.92,36.48,28.59c0,0-14.38,4.41-11.08,16.79s30,12.52,58.06,2.38c0,0,1.44.77-10,4.42S29.44,92.27,26.62,77.07Z"/><path class="cls-4" d="M105.05,7.39c15.23-14.69,41.4,15.82,41.4,15.82a21.5,21.5,0,0,1,5-5.92c3.48-3,11-5.33,20,4.21s5.94,13,5.94,13c-3.43-12.41-10.5-16-19.44-16.64s-10.47,9.25-10.47,9.25c-11.08-13.82-30.51-28.39-40.81-18.3s-1.81,18-1.81,18C103.77,28.73,89.83,22.08,105.05,7.39Z"/></g></g></svg>