<svg xmlns="http://www.w3.org/2000/svg" viewBox="0 0 327.72 99.91"><defs><style>.cls-1{fill:#da3933;}.cls-2{fill:#c93131;}.cls-3{fill:#f98080;}.cls-4{fill:#b22b2b;}</style></defs><title>tomatoes</title><g id="Layer_2" data-name="Layer 2"><g id="burger_ingredient_illustration_set" data-name="burger ingredient illustration set"><path class="cls-1" d="M156.19,17.58S147.13-.72,80.14,0,4.5,19.3,4.5,19.3-14,98.74,81.25,97.66,156.19,17.58,156.19,17.58Z"/><path class="cls-2" d="M156.19,17.58a13.55,13.55,0,0,0-3.71-3.88c.76,24.44-6.14,72.11-71.36,72.85C11.32,87.34,7.36,36,8.66,14.91,5.37,17.46,4.5,19.3,4.5,19.3S-14,98.74,81.25,97.66,156.19,17.58,156.19,17.58Z"/><path class="cls-3" d="M31.3,19c-3.85,7.11,13.31,9.73,13.31,9.73S28.29,30.88,31,39.56s26.87-11,26.87-11S35.15,11.88,31.3,19Z"/><path class="cls-3" d="M79.24,35.08s-19.73,19-14.06,23.47S79.4,48.87,79.4,48.87s3,16.19,10.82,13S81.77,35.05,79.24,35.08Z"/><path class="cls-3" d="M124.28,17.94c-.36-6.78-29.13,8-29.13,8S114.77,46.75,118.9,39.4s-9.11-10.75-9.11-10.75S124.64,24.73,124.28,17.94Z"/><path class="cls-2" d="M45.24,72s-1.79,2.52,3.2,5.6,6.84.59,6.84.59,3.41-2.85-3.52-7.12S45.24,72,45.24,72Z"/><path class="cls-2" d="M51.1,65.72s3.41-2.85-3.52-7.13-6.52.93-6.52.93-1.79,2.53,3.19,5.61S51.1,65.72,51.1,65.72Z"/><path class="cls-2" d="M41.37,69.62s3.41-2.85-3.52-7.13-6.52.93-6.52.93S29.54,66,34.53,69,41.37,69.62,41.37,69.62Z"/><path class="cls-4" d="M152.72,61.58S148.49,96.89,76.3,97.71,1.83,38.2,1.83,38.2c-6.36,1.48,5.7,27.09,8.58,32.69s20.41,29.5,65.07,29,66.14-14.66,73.59-26.73S152.72,61.58,152.72,61.58Z"/><path class="cls-1" d="M170.47,21.72S178.57,3,245.52.28s76.53,15.33,76.53,15.33S344.61,94,249.45,97.82,170.47,21.72,170.47,21.72Z"/><path class="cls-2" d="M170.47,21.72A13.67,13.67,0,0,1,174,17.65c.51,24.44,9.85,71.7,75,69.07,69.75-2.81,71.06-54.32,68.67-75.28,3.42,2.37,4.38,4.17,4.38,4.17S344.61,94,249.45,97.82,170.47,21.72,170.47,21.72Z"/><path class="cls-3" d="M295.27,16.69c4.22,6.9-12.79,10.4-12.79,10.4s16.41,1.3,14.21,10.11-27.41-9.58-27.41-9.58S291.06,9.78,295.27,16.69Z"/><path class="cls-3" d="M248.22,35.22s20.69,18,15.26,22.72S248.78,49,248.78,49s-2.16,16.32-10.14,13.57S245.69,35.32,248.22,35.22Z"/><path class="cls-3" d="M202.36,20.43c0-6.79,29.5,6.45,29.5,6.45s-18.52,21.83-23,14.7,8.54-11.21,8.54-11.21S202.35,27.23,202.36,20.43Z"/><path class="cls-2" d="M284.08,70.34s1.92,2.43-2.9,5.76-6.81,1-6.81,1-3.55-2.67,3.16-7.3S284.08,70.34,284.08,70.34Z"/><path class="cls-2" d="M277.9,64.37s-3.54-2.67,3.16-7.3,6.55.59,6.55.59,1.93,2.43-2.9,5.76S277.9,64.37,277.9,64.37Z"/><path class="cls-2" d="M287.82,67.76s-3.55-2.67,3.16-7.3,6.55.59,6.55.59,1.92,2.43-2.9,5.76S287.82,67.76,287.82,67.76Z"/><path class="cls-4" d="M176.21,65.47s6,35.05,78.18,32.15S325.7,34.34,325.7,34.34c6.42,1.15-4.3,27.35-6.89,33.09S300,98,255.32,99.74s-66.8-11.23-74.87-22.9S176.21,65.47,176.21,65.47Z"/></g></g></svg>