<svg xmlns="http://www.w3.org/2000/svg" viewBox="0 0 391.69 170.09"><defs><style>.cls-1{fill:#f9ab6d;}.cls-2{fill:#f49c60;}.cls-3{fill:#ef9354;}.cls-4{fill:#f7ccb0;}</style></defs><title>upper-bread</title><g id="Layer_2" data-name="Layer 2"><g id="burger_ingredient_illustration_set" data-name="burger ingredient illustration set"><path class="cls-1" d="M200.1,2.12C3.9,2.12,4.69,149.66,4.69,149.66s12.57,18.05,195.41,18.05,191.58-18.05,191.58-18.05S396.31,2.12,200.1,2.12Z"/><path class="cls-2" d="M175.58,2.94C4,14.69,4.69,149.66,4.69,149.66s8,11.44,103.51,16.1c-2.29-25.6-43.83-46.91-24.26-90.07C99.4,41.58,146.93,15.85,175.58,2.94Z"/><path class="cls-2" d="M99.62,132.26s-1.79.4-.83,3.74,2.77,3,2.77,3,2.63.11,1.29-4.53S99.62,132.26,99.62,132.26Z"/><path class="cls-2" d="M104.7,131.84s2.64.11,1.3-4.53-3.23-2.19-3.23-2.19-1.8.39-.83,3.73S104.7,131.84,104.7,131.84Z"/><path class="cls-2" d="M98.88,129.67s2.63.11,1.29-4.53-3.23-2.2-3.23-2.2-1.79.39-.83,3.74S98.88,129.67,98.88,129.67Z"/><path class="cls-2" d="M265.71,159.9s-.15,1.83,3.33,1.89,3.67-1.77,3.67-1.77.88-2.49-4-2.57S265.71,159.9,265.71,159.9Z"/><path class="cls-2" d="M266.79,154.92s.88-2.48-4-2.56-3,2.45-3,2.45-.15,1.83,3.32,1.88S266.79,154.92,266.79,154.92Z"/><path class="cls-2" d="M263,159.86s.87-2.49-4-2.57-3,2.45-3,2.45-.15,1.83,3.32,1.89S263,159.86,263,159.86Z"/><path class="cls-2" d="M368.35,84.21s1.59-.92-.35-3.81-3.55-2-3.55-2-2.54.7.15,4.72S368.35,84.21,368.35,84.21Z"/><path class="cls-2" d="M363.64,86.16s-2.54.7.15,4.71S367.54,92,367.54,92s1.59-.92-.35-3.81S363.64,86.16,363.64,86.16Z"/><path class="cls-2" d="M369.85,86.45s-2.54.7.15,4.71,3.75,1.11,3.75,1.11,1.59-.93-.35-3.81S369.85,86.45,369.85,86.45Z"/><path class="cls-3" d="M371.56,76c-20-29-56.62-64.83-122-73.08S103.7,5.06,101.65,18.54c0,0,28.45-16.42,103.45-16.42S356,26.37,385.54,111.19C385.54,111.19,391.52,105,371.56,76Z"/><path class="cls-3" d="M308.62,164.79s-54.56,2.32-155.53,2.47S.6,147,.6,147c-4.33,2.53,14.5,13.5,61,18.74S199.1,170,259.38,170,308.62,164.79,308.62,164.79Z"/><path class="cls-4" d="M147.41,18.17s-3-3.85-8.45,3.34.19,7.65.19,7.65,2.64,3.14,7.2-2.92S147.41,18.17,147.41,18.17Z"/><path class="cls-4" d="M107,43.83s-2.38-4.3-8.89,1.92-1.06,7.58-1.06,7.58,2.1,3.52,7.58-1.71S107,43.83,107,43.83Z"/><path class="cls-4" d="M78.64,72.48s-2.46-4.25-8.84,2.09-.91,7.6-.91,7.6,2.17,3.49,7.55-1.86S78.64,72.48,78.64,72.48Z"/><path class="cls-4" d="M130.57,58.52s-4.53,1.92,1,9S139,69.4,139,69.4s3.73-1.72-.92-7.72S130.57,58.52,130.57,58.52Z"/><path class="cls-4" d="M117.25,94.25s-3-3.91-8.51,3.19.06,7.65.06,7.65,2.59,3.19,7.26-2.8S117.25,94.25,117.25,94.25Z"/><path class="cls-4" d="M188,39.24s-2.78-4.05-8.67,2.76-.33,7.64-.33,7.64,2.42,3.32,7.38-2.42S188,39.24,188,39.24Z"/><path class="cls-4" d="M233.5,19.66c-6.83-3.29-8.12.53-8.12.53s-3.18,3.74,4.92,7.65,7.47-1.68,7.47-1.68S240.34,23,233.5,19.66Z"/><path class="cls-4" d="M255,38.84s-4.37,2.25,1.65,8.94,7.55,1.28,7.55,1.28,3.59-2-1.49-7.63S255,38.84,255,38.84Z"/><path class="cls-4" d="M211.67,71.29c-7.56,4.88-2.46,7.24-2.46,7.24s1.39,3.86,7.77-.25,3.78-7.2,3.78-7.2S219.24,66.41,211.67,71.29Z"/><path class="cls-4" d="M254.22,88.22c-5.68-5-8-1.71-8-1.71s-4.08,2.73,2.65,8.7,7.64.43,7.64.43S259.89,93.25,254.22,88.22Z"/><path class="cls-4" d="M298.12,60.89s-3.07-3.84-8.43,3.4.25,7.64.25,7.64,2.66,3.13,7.18-3S298.12,60.89,298.12,60.89Z"/><path class="cls-4" d="M312.62,38.48s-4.54,1.88.9,9.05,7.41,1.91,7.41,1.91,3.74-1.68-.84-7.73S312.62,38.48,312.62,38.48Z"/><path class="cls-4" d="M336.69,78.92c-4.91-5.78-7.64-2.81-7.64-2.81s-4.43,2.12,1.4,9,7.5,1.5,7.5,1.5S341.6,84.7,336.69,78.92Z"/></g></g></svg>